<svg xmlns="http://www.w3.org/2000/svg" width="81" height="81" viewBox="0 0 81 81" fill="currentColor">
  <path d="M53.625 19H31.75C29.4294 19 27.2038 19.9271 25.5628 21.5775C23.9219 23.2278 23 25.4661 23 27.8V54.2C23 56.5339 23.9219 58.7722 25.5628 60.4225C27.2038 62.0729 29.4294 63 31.75 63H53.625C54.7853 63 55.8981 62.5364 56.7186 61.7113C57.5391 60.8861 58 59.767 58 58.6V23.4C58 22.233 57.5391 21.1139 56.7186 20.2887C55.8981 19.4636 54.7853 19 53.625 19ZM27.375 27.8C27.375 26.633 27.8359 25.5139 28.6564 24.6887C29.4769 23.8636 30.5897 23.4 31.75 23.4H53.625V45.4H31.75C30.2079 45.4065 28.6962 45.8322 27.375 46.632V27.8ZM31.75 58.6C30.5897 58.6 29.4769 58.1364 28.6564 57.3113C27.8359 56.4861 27.375 55.367 27.375 54.2C27.375 53.033 27.8359 51.9139 28.6564 51.0887C29.4769 50.2636 30.5897 49.8 31.75 49.8H53.625V58.6H31.75ZM36.125 32.2H44.875C45.4552 32.2 46.0116 31.9682 46.4218 31.5556C46.832 31.1431 47.0625 30.5835 47.0625 30C47.0625 29.4165 46.832 28.8569 46.4218 28.4444C46.0116 28.0318 45.4552 27.8 44.875 27.8H36.125C35.5448 27.8 34.9884 28.0318 34.5782 28.4444C34.168 28.8569 33.9375 29.4165 33.9375 30C33.9375 30.5835 34.168 31.1431 34.5782 31.5556C34.9884 31.9682 35.5448 32.2 36.125 32.2Z" fill="currentColor"/>
</svg>