<svg xmlns="http://www.w3.org/2000/svg" width="81" height="81" viewBox="0 0 81 81" fill="currentColor">
  <path d="M31.7192 40.016L30.2299 50.3787C30.0746 51.6163 30.8382 52.7701 32.6213 52.7701L42.9839 51.2807C43.4359 51.2206 43.8558 51.0143 44.1796 50.6933C44.3454 50.5276 60.6047 34.283 60.7516 34.1005C67.9719 26.125 56.6086 15.2441 48.8995 22.2484C48.717 22.3952 32.4702 38.6567 32.3066 38.8203C31.9856 39.1441 31.7793 39.564 31.7192 40.016ZM54.5633 24.2832C55.1127 24.2759 55.6581 24.3781 56.1676 24.5838C56.6772 24.7894 57.1407 25.0944 57.5312 25.481C57.9216 25.8675 58.2313 26.328 58.442 26.8354C58.6528 27.3429 58.7604 27.8872 58.7587 28.4366C58.7601 29.3318 58.465 30.2021 57.9196 30.9119L52.088 25.0803C52.8034 24.5503 53.6731 24.2702 54.5633 24.2832ZM35.7678 41.2956L49.0673 28.0171L54.9828 33.9326L41.7043 47.2321L34.7819 48.218L35.7678 41.2956Z" fill="currentColor"/>
  <path d="M56.6611 43.3828V51.5114C56.6594 53.18 55.9958 54.7797 54.816 55.9595C53.6362 57.1393 52.0365 57.8029 50.3679 57.8046H31.4885C29.82 57.8029 28.2203 57.1393 27.0405 55.9595C25.8606 54.7797 25.1971 53.18 25.1954 51.5114V32.632C25.1971 30.9635 25.8606 29.3638 27.0405 28.184C28.2203 27.0041 29.82 26.3406 31.4885 26.3389H39.8144C40.3707 26.3389 40.9043 26.1179 41.2977 25.7245C41.6911 25.3311 41.9121 24.7976 41.9121 24.2412C41.9121 23.6849 41.6911 23.1513 41.2977 22.7579C40.9043 22.3645 40.3707 22.1435 39.8144 22.1435H31.4885C28.7078 22.1468 26.042 23.2529 24.0757 25.2192C22.1094 27.1855 21.0033 29.8513 21 32.632V51.5114C21.0033 54.2921 22.1094 56.958 24.0757 58.9243C26.042 60.8905 28.7078 61.9966 31.4885 62H50.3679C53.1486 61.9966 55.8145 60.8905 57.7808 58.9243C59.747 56.958 60.8531 54.2921 60.8565 51.5114V43.3828C60.8565 42.8265 60.6355 42.2929 60.2421 41.8995C59.8487 41.5061 59.3151 41.2851 58.7588 41.2851C58.2024 41.2851 57.6689 41.5061 57.2755 41.8995C56.8821 42.2929 56.6611 42.8265 56.6611 43.3828Z" fill="currentColor"/>
</svg>