<svg xmlns="http://www.w3.org/2000/svg" width="81" height="81" viewBox="0 0 81 81" fill="currentColor">
  <path d="M54.15 42.35C57.3809 42.35 60 44.9691 60 48.2V50.15C60 57.8386 52.7479 65.75 40.5 65.75C28.2521 65.75 21 57.8386 21 50.15V48.2C21 44.9691 23.6191 42.35 26.85 42.35H54.15ZM54.15 46.25H26.85C25.773 46.25 24.9 47.123 24.9 48.2V50.15C24.9 55.7568 30.4854 61.85 40.5 61.85C50.5146 61.85 56.1 55.7568 56.1 50.15V48.2C56.1 47.123 55.227 46.25 54.15 46.25ZM40.5 17C46.4233 17 51.225 21.8017 51.225 27.725C51.225 33.6483 46.4233 38.45 40.5 38.45C34.5767 38.45 29.775 33.6483 29.775 27.725C29.775 21.8017 34.5767 17 40.5 17ZM40.5 20.9C36.7307 20.9 33.675 23.9557 33.675 27.725C33.675 31.4943 36.7307 34.55 40.5 34.55C44.2693 34.55 47.325 31.4943 47.325 27.725C47.325 23.9557 44.2693 20.9 40.5 20.9Z" fill="currentColor"/>
</svg>