<svg xmlns="http://www.w3.org/2000/svg" width="81" height="81" viewBox="0 0 81 81" fill="currentColor">
  <path d="M51.5594 45.2271C50.3206 45.2353 49.0991 45.5178 47.9826 46.0543C46.866 46.5909 45.8822 47.3681 45.1018 48.3301L34.4091 43.4031C34.9119 41.8636 34.9119 40.2042 34.4091 38.6647L45.1018 33.7377C46.3632 35.2598 48.1217 36.2873 50.0669 36.6391C52.0122 36.9908 54.0191 36.6441 55.7336 35.6601C57.4481 34.6761 58.7599 33.1181 59.4375 31.2611C60.1151 29.404 60.1149 27.3673 59.437 25.5104C58.759 23.6535 57.447 22.0957 55.7323 21.1121C54.0176 20.1284 52.0106 19.782 50.0654 20.1341C48.1202 20.4862 46.3619 21.5141 45.1008 23.0364C43.8398 24.5587 43.157 26.4775 43.1729 28.4542C43.1792 28.9537 43.2283 29.4517 43.3197 29.9428L32.2496 35.0376C31.0694 33.8836 29.5748 33.1035 27.9532 32.7951C26.3316 32.4867 24.6551 32.6637 23.1336 33.304C21.6122 33.9442 20.3135 35.0192 19.4003 36.3942C18.4871 37.7693 18 39.3832 18 41.0339C18 42.6846 18.4871 44.2985 19.4003 45.6736C20.3135 47.0486 21.6122 48.1236 23.1336 48.7638C24.6551 49.4041 26.3316 49.5811 27.9532 49.2727C29.5748 48.9643 31.0694 48.1842 32.2496 47.0302L43.3197 52.125C43.2283 52.6161 43.1792 53.1141 43.1729 53.6136C43.1729 55.2722 43.6648 56.8937 44.5863 58.2728C45.5078 59.652 46.8176 60.7269 48.35 61.3616C49.8825 61.9964 51.5687 62.1624 53.1955 61.8389C54.8223 61.5153 56.3166 60.7165 57.4895 59.5437C58.6623 58.3708 59.4611 56.8765 59.7847 55.2497C60.1083 53.6229 59.9422 51.9366 59.3074 50.4042C58.6727 48.8718 57.5978 47.562 56.2186 46.6405C54.8395 45.719 53.2181 45.2271 51.5594 45.2271ZM51.5594 24.261C52.3887 24.261 53.1994 24.507 53.889 24.9677C54.5786 25.4285 55.116 26.0834 55.4334 26.8496C55.7508 27.6158 55.8338 28.4589 55.672 29.2723C55.5102 30.0857 55.1109 30.8329 54.5244 31.4193C53.938 32.0057 53.1908 32.4051 52.3774 32.5669C51.564 32.7287 50.7209 32.6456 49.9547 32.3283C49.1885 32.0109 48.5336 31.4734 48.0728 30.7839C47.6121 30.0943 47.3662 29.2836 47.3662 28.4542C47.3662 27.3421 47.8079 26.2756 48.5943 25.4892C49.3807 24.7028 50.4473 24.261 51.5594 24.261ZM26.4001 45.2271C25.5707 45.2271 24.76 44.9812 24.0704 44.5204C23.3809 44.0597 22.8434 43.4048 22.526 42.6386C22.2087 41.8724 22.1256 41.0293 22.2874 40.2158C22.4492 39.4024 22.8486 38.6553 23.435 38.0688C24.0214 37.4824 24.7686 37.083 25.582 36.9213C26.3954 36.7595 27.2385 36.8425 28.0047 37.1599C28.7709 37.4772 29.4258 38.0147 29.8866 38.7043C30.3474 39.3938 30.5933 40.2046 30.5933 41.0339C30.5933 42.146 30.1515 43.2126 29.3651 43.999C28.5787 44.7853 27.5122 45.2271 26.4001 45.2271ZM51.5594 57.8068C50.73 57.8068 49.9193 57.5609 49.2297 57.1001C48.5402 56.6393 48.0027 55.9844 47.6853 55.2182C47.368 54.452 47.2849 53.6089 47.4467 52.7955C47.6085 51.9821 48.0079 51.2349 48.5943 50.6485C49.1808 50.0621 49.9279 49.6627 50.7413 49.5009C51.5547 49.3391 52.3978 49.4222 53.1641 49.7395C53.9303 50.0569 54.5852 50.5944 55.0459 51.2839C55.5067 51.9735 55.7526 52.7842 55.7526 53.6136C55.7526 54.7257 55.3108 55.7922 54.5244 56.5786C53.738 57.365 52.6715 57.8068 51.5594 57.8068Z" fill="currentColor"/>
</svg>